<svg xmlns="http://www.w3.org/2000/svg" version="1.1" xmlns:xlink="http://www.w3.org/1999/xlink" xmlns:svgjs="http://svgjs.dev/svgjs" viewBox="0 0 1422 800"><defs><filter id="llleaves-blur-2" x="-100%" y="-100%" width="400%" height="400%"><feGaussianBlur in="SourceGraphic" stdDeviation="2"></feGaussianBlur></filter><filter id="llleaves-blur-3" x="-100%" y="-100%" width="400%" height="400%"><feGaussianBlur in="SourceGraphic" stdDeviation="4"></feGaussianBlur></filter><filter id="llleaves-blur-4" x="-100%" y="-100%" width="400%" height="400%"><feGaussianBlur in="SourceGraphic" stdDeviation="12"></feGaussianBlur></filter></defs><g fill="hsl(96 34% 53%)"><path d="M850 41H900C928 41 950 63 950 91H900C872 91 850 69 850 41Z " transform="matrix(0.016149370887189762,0.2309467633135601,-0.2309467633135601,0.016149370887189762,900.7080525802241,-142.91794546075857)" filter="url(#llleaves-blur-3)" opacity="0.35"></path><path d="M350 124H400C428 124 450 146 450 174H400C372 174 350 152 350 124Z " transform="matrix(-0.10680435798567586,0.25161529944084166,-0.25161529944084166,-0.10680435798567586,480.2124228109557,64.26772956352904)" filter="url(#llleaves-blur-3)" opacity="0.42"></path><path d="M174 456H224C252 456 274 478 274 506H224C196 506 174 484 174 456Z " transform="matrix(-0.3536919967086971,0.06236544188039287,-0.06236544188039287,-0.3536919967086971,333.22478480721713,637.1559914356752)" filter="url(#llleaves-blur-2)" opacity="0.55"></path><path d="M113 35H163C191 35 213 57 213 85H163C135 85 113 63 113 35Z " transform="matrix(-0.2636081227622535,0.1845803946914406,-0.1845803946914406,-0.2636081227622535,217.04294769173376,45.72988303103039)" filter="url(#llleaves-blur-2)" opacity="0.49"></path><path d="M718 43H768C796 43 818 65 818 93H768C740 93 718 71 718 43Z " transform="matrix(0.04215419303157483,0.21686452305057585,-0.21686452305057585,0.04215419303157483,750.3723673191897,-101.41843882898934)" filter="url(#llleaves-blur-3)" opacity="0.34"></path><path d="M573 609H623C651 609 673 631 673 659H623C595 659 573 637 573 609Z " transform="matrix(-0.05774848623753243,0.2501361749143025,-0.2501361749143025,-0.05774848623753243,817.5636418216504,514.7777033029851)" filter="url(#llleaves-blur-3)" opacity="0.39"></path><path d="M984 32H1034C1062 32 1084 54 1084 82H1034C1006 82 984 60 984 32Z " transform="matrix(0.004116418257917664,0.23582944405226236,-0.23582944405226236,0.004116418257917664,1043.185901832292,-187.08228099074057)" filter="url(#llleaves-blur-3)" opacity="0.36"></path><path d="M165 596H215C243 596 265 618 265 646H215C187 646 165 624 165 596Z " transform="matrix(-0.3536919967086971,0.06236544188039287,-0.06236544188039287,-0.3536919967086971,329.7727187000939,827.2341599518163)" filter="url(#llleaves-blur-2)" opacity="0.55"></path><path d="M-9 571H41C69 571 91 593 91 621H41C13 621 -9 599 -9 571Z " transform="matrix(-0.2517671178519873,-0.38768736382085234,0.38768736382085234,-0.2517671178519873,-179.7392170052965,761.9483841564394)" opacity="0.71"></path><path d="M688 601H738C766 601 788 623 788 651H738C710 651 688 629 688 601Z " transform="matrix(-0.04858090192671657,0.24992707410654952,-0.24992707410654952,-0.04858090192671657,930.3070540126168,471.965463915491)" filter="url(#llleaves-blur-3)" opacity="0.39"></path><path d="M699 321H749C777 321 799 343 799 371H749C721 371 699 349 699 321Z " transform="matrix(-0.048511318140938474,0.2495690965619784,-0.2495690965619784,-0.048511318140938474,871.6858846980074,175.8576627518429)" filter="url(#llleaves-blur-3)" opacity="0.39"></path><path d="M338 23H388C416 23 438 45 438 73H388C360 73 338 51 338 23Z " transform="matrix(0.0554306850308397,0.2068701328334414,-0.2068701328334414,0.0554306850308397,376.42266058403936,-34.92628442085558)" filter="url(#llleaves-blur-3)" opacity="0.33"></path><path d="M1068 688H1118C1146 688 1168 710 1168 738H1118C1090 738 1068 716 1068 688Z " transform="matrix(-0.04383778520039337,0.2486164342192973,-0.2486164342192973,-0.04383778520039337,1344.2741614523989,466.30316739070605)" filter="url(#llleaves-blur-3)" opacity="0.39"></path><path d="M206 720H256C284 720 306 742 306 770H256C228 770 206 748 206 720Z " transform="matrix(-0.3234851782108691,0.1177389760950543,-0.1177389760950543,-0.3234851782108691,426.5277428127979,955.8552798867636)" filter="url(#llleaves-blur-2)" opacity="0.53"></path><path d="M1 223H51C79 223 101 245 101 273H51C23 273 1 251 1 223Z " transform="matrix(-0.2517671178519873,-0.38768736382085234,0.38768736382085234,-0.2517671178519873,-32.306343217120016,330.2103007821563)" opacity="0.71"></path><path d="M480 288H530C558 288 580 310 580 338H530C502 338 480 316 480 288Z " transform="matrix(-0.08204436463935237,0.2525065903685384,-0.2525065903685384,-0.08204436463935237,652.5180760442092,204.85139323679195)" filter="url(#llleaves-blur-3)" opacity="0.41"></path><path d="M1179 453H1229C1257 453 1279 475 1279 503H1229C1201 503 1179 481 1179 453Z " transform="matrix(-0.07221577600012513,0.25184634029601616,-0.25184634029601616,-0.07221577600012513,1438.1357393656494,202.99998870425594)" filter="url(#llleaves-blur-3)" opacity="0.40"></path><path d="M4 23H54C82 23 104 45 104 73H54C26 73 4 51 4 23Z " transform="matrix(-0.375,4.592425496802574e-17,-4.592425496802574e-17,-0.375,74.25,66)" filter="url(#llleaves-blur-2)" opacity="0.57"></path><path d="M927 175H977C1005 175 1027 197 1027 225H977C949 225 927 203 927 175Z " transform="matrix(-0.03938537397517266,0.2486694645917891,-0.2486694645917891,-0.03938537397517266,1065.2134032921017,-35.07299211114341)" filter="url(#llleaves-blur-3)" opacity="0.38"></path><path d="M67 629H117C145 629 167 651 167 679H117C89 679 67 657 67 629Z " transform="matrix(-0.3536118781734413,-0.23851422348463264,0.23851422348463264,-0.3536118781734413,2.3842875873428824,913.1683324731325)" opacity="0.65"></path><path d="M1058 250H1108C1136 250 1158 272 1158 300H1108C1080 300 1058 278 1058 250Z " transform="matrix(-0.04383778520039337,0.2486164342192973,-0.2486164342192973,-0.04383778520039337,1224.9417854123426,11.588381815126809)" filter="url(#llleaves-blur-3)" opacity="0.39"></path><path d="M325 734H375C403 734 425 756 425 784H375C347 784 325 762 325 734Z " transform="matrix(-0.18666336277930795,0.23051005592543825,-0.23051005592543825,-0.18666336277930795,619.9558934896481,814.2362213774554)" filter="url(#llleaves-blur-3)" opacity="0.45"></path><path d="M586 377H636C664 377 686 399 686 427H636C608 427 586 405 586 377Z " transform="matrix(-0.05774848623753243,0.2501361749143025,-0.2501361749143025,-0.05774848623753243,773.2827795626201,266.12828422199163)" filter="url(#llleaves-blur-3)" opacity="0.39"></path><path d="M727 715H777C805 715 827 737 827 765H777C749 765 727 743 727 715Z " transform="matrix(-0.048452313516666914,0.24926554408522134,-0.24926554408522134,-0.048452313516666914,999.1039502255139,582.1753842481165)" filter="url(#llleaves-blur-3)" opacity="0.39"></path><path d="M1312 156H1362C1390 156 1412 178 1412 206H1362C1334 206 1312 184 1312 156Z " transform="matrix(-0.15177864029704005,0.24289659883825468,-0.24289659883825468,-0.15177864029704005,1612.6867924742926,-122.35323372393862)" filter="url(#llleaves-blur-3)" opacity="0.44"></path><path d="M593 29H643C671 29 693 51 693 79H643C615 79 593 57 593 29Z " transform="matrix(0.0763170706761176,0.18889137832170103,-0.18889137832170103,0.0763170706761176,604.1282579846282,-71.57827807736412)" filter="url(#llleaves-blur-3)" opacity="0.31"></path><path d="M1053 389H1103C1131 389 1153 411 1153 439H1103C1075 439 1053 417 1053 389Z " transform="matrix(-0.04383778520039337,0.2486164342192973,-0.2486164342192973,-0.04383778520039337,1254.280280842823,157.92491612907793)" filter="url(#llleaves-blur-3)" opacity="0.39"></path><path d="M1056 127H1106C1134 127 1156 149 1156 177H1106C1078 177 1056 155 1056 127Z " transform="matrix(-0.04394262770964444,0.24921102563593592,-0.24921102563593592,-0.04394262770964444,1192.480622143529,-116.94811494147916)" filter="url(#llleaves-blur-3)" opacity="0.39"></path><path d="M587 252H637C665 252 687 274 687 302H637C609 302 587 280 587 252Z " transform="matrix(-0.05774848623753243,0.2501361749143025,-0.2501361749143025,-0.05774848623753243,743.0735061845699,133.65958726738577)" filter="url(#llleaves-blur-3)" opacity="0.39"></path><path d="M9 121H59C87 121 109 143 109 171H59C31 171 9 149 9 121Z " transform="matrix(-0.34744503876562866,-0.25243359680770033,0.25243359680770033,-0.34744503876562866,42.64395215324784,211.62055787143612)" opacity="0.66"></path><path d="M1307 417H1357C1385 417 1407 439 1407 467H1357C1329 467 1307 445 1307 417Z " transform="matrix(-0.15177864029704005,0.24289659883825468,-0.24289659883825468,-0.15177864029704005,1670.3239115695922,179.47547438778008)" filter="url(#llleaves-blur-3)" opacity="0.44"></path><path d="M346 558H396C424 558 446 580 446 608H396C368 608 346 586 346 558Z " transform="matrix(-0.15685835152718208,0.24154067979841934,-0.24154067979841934,-0.15685835152718208,598.9341235272427,578.7983097401732)" filter="url(#llleaves-blur-3)" opacity="0.44"></path><path d="M335 434H385C413 434 435 456 435 484H385C357 484 335 462 335 434Z " transform="matrix(-0.15685835152718208,0.24154067979841934,-0.24154067979841934,-0.15685835152718208,556.2576373654396,438.00482162858515)" filter="url(#llleaves-blur-3)" opacity="0.44"></path><path d="M684 177H734C762 177 784 199 784 227H734C706 227 684 205 684 177Z " transform="matrix(-0.04858090192671657,0.24992707410654952,-0.24992707410654952,-0.04858090192671657,820.1436509837331,28.366869794989412)" filter="url(#llleaves-blur-3)" opacity="0.39"></path><path d="M1180 314H1230C1258 314 1280 336 1280 364H1230C1202 364 1180 342 1180 314Z " transform="matrix(-0.07221577600012513,0.25184634029601616,-0.25184634029601616,-0.07221577600012513,1404.2013138405034,53.71014949994253)" filter="url(#llleaves-blur-3)" opacity="0.40"></path><path d="M1047 525H1097C1125 525 1147 547 1147 575H1097C1069 575 1047 553 1047 525Z " transform="matrix(-0.04383778520039337,0.2486164342192973,-0.2486164342192973,-0.04383778520039337,1281.8290891854451,301.3785535216472)" filter="url(#llleaves-blur-3)" opacity="0.39"></path><path d="M1146 33H1196C1224 33 1246 55 1246 83H1196C1168 83 1146 61 1146 33Z " transform="matrix(-0.0673932034387821,0.2515148593183603,-0.2515148593183603,-0.0673932034387821,1291.1901331532483,-238.90296594530957)" filter="url(#llleaves-blur-3)" opacity="0.40"></path><path d="M914 452H964C992 452 1014 474 1014 502H964C936 502 914 480 914 452Z " transform="matrix(-0.03938537397517266,0.2486694645917891,-0.2486694645917891,-0.03938537397517266,1120.5828351223497,256.06945951967265)" filter="url(#llleaves-blur-3)" opacity="0.38"></path><path d="M113 374H163C191 374 213 396 213 424H163C135 424 113 402 113 374Z " transform="matrix(-0.3844416420198532,-0.07472788522123114,0.07472788522123114,-0.3844416420198532,195.84756144596486,564.5728604569822)" filter="url(#llleaves-blur-2)" opacity="0.60"></path><path d="M842 703H892C920 703 942 725 942 753H892C864 753 842 731 842 703Z " transform="matrix(-0.04385676285413798,0.24872406184195808,-0.24872406184195808,-0.04385676285413798,1112.1913494868363,538.0658601947858)" filter="url(#llleaves-blur-3)" opacity="0.39"></path><path d="M476 723H526C554 723 576 745 576 773H526C498 773 476 751 476 723Z " transform="matrix(-0.08204436463935237,0.2525065903685384,-0.2525065903685384,-0.08204436463935237,758.0302653959661,676.5507182163844)" filter="url(#llleaves-blur-3)" opacity="0.41"></path><path d="M959 719H1009C1037 719 1059 741 1059 769H1009C981 769 959 747 959 719Z " transform="matrix(-0.03930862261621346,0.2481848755829071,-0.2481848755829071,-0.03930862261621346,1233.3119476534423,522.8270757633095)" filter="url(#llleaves-blur-3)" opacity="0.38"></path><path d="M3 446H53C81 446 103 468 103 496H53C25 496 3 474 3 446Z " transform="matrix(-0.2517671178519873,-0.38768736382085234,0.38768736382085234,-0.2517671178519873,-116.25709111346615,610.1297427907912)" opacity="0.71"></path><path d="M467 602H517C545 602 567 624 567 652H517C489 652 467 630 467 602Z " transform="matrix(-0.08204436463935237,0.2525065903685384,-0.2525065903685384,-0.08204436463935237,717.7385686796187,547.8959094083395)" filter="url(#llleaves-blur-3)" opacity="0.41"></path></g><g fill="none" stroke-width="3" stroke="hsl(96 34% 53%)"><path d="M250 512H300C328 512 350 534 350 562H300C272 562 250 540 250 512Z " transform="matrix(-0.25383946013142056,0.19128175325793864,-0.19128175325793864,-0.25383946013142056,478.87013953893927,615.9272641131912)" filter="url(#llleaves-blur-2)" opacity="0.49"></path><path d="M822 299H872C900 299 922 321 922 349H872C844 349 822 327 822 299Z " transform="matrix(-0.043924661388021966,0.24910913356275302,-0.24910913356275302,-0.043924661388021966,991.0136640046871,121.0084258229985)" filter="url(#llleaves-blur-3)" opacity="0.39"></path><path d="M938 592H988C1016 592 1038 614 1038 642H988C960 642 938 620 938 592Z " transform="matrix(-0.03933619033352745,0.24835893129985445,-0.24835893129985445,-0.03933619033352745,1180.1016166615354,395.8918053115302)" filter="url(#llleaves-blur-3)" opacity="0.38"></path><path d="M1186 169H1236C1264 169 1286 191 1286 219H1236C1208 219 1186 197 1186 169Z " transform="matrix(-0.07221577600012513,0.25184634029601616,-0.25184634029601616,-0.07221577600012513,1374.1168891535817,-103.27221606185174)" filter="url(#llleaves-blur-3)" opacity="0.40"></path><path d="M559 135H609C637 135 659 157 659 185H609C581 185 559 163 559 135Z " transform="matrix(-0.025829736320392958,0.24575352510868917,-0.24575352510868917,-0.025829736320392958,664.0508734365096,14.46886102007116)" filter="url(#llleaves-blur-3)" opacity="0.38"></path><path d="M807 564H857C885 564 907 586 907 614H857C829 614 807 592 807 564Z " transform="matrix(-0.04398670896398011,0.24946102285223581,-0.24946102285223581,-0.04398670896398011,1041.6291520420978,401.12007499541824)" filter="url(#llleaves-blur-3)" opacity="0.39"></path><path d="M381 663H431C459 663 481 685 481 713H431C403 713 381 691 381 663Z " transform="matrix(-0.1317717175463636,0.24782655657358782,-0.24782655657358782,-0.1317717175463636,658.2982811851111,671.8456957886818)" filter="url(#llleaves-blur-3)" opacity="0.43"></path><path d="M232 144H282C310 144 332 166 332 194H282C254 194 232 172 232 144Z " transform="matrix(-0.240725333446073,0.20199253850962767,-0.20199253850962767,-0.240725333446073,384.0212830399197,152.72068549267132)" filter="url(#llleaves-blur-2)" opacity="0.48"></path><path d="M446 181H496C524 181 546 203 546 231H496C468 231 446 209 446 181Z " transform="matrix(-0.09659393947180414,0.25163581543369196,-0.25163581543369196,-0.09659393947180414,595.7475719573555,101.08698707608046)" filter="url(#llleaves-blur-3)" opacity="0.41"></path><path d="M784 429H834C862 429 884 451 884 479H834C806 479 784 457 784 429Z " transform="matrix(-0.04398670896398011,0.24946102285223581,-0.24946102285223581,-0.04398670896398011,983.9402196508745,265.9194728108823)" filter="url(#llleaves-blur-3)" opacity="0.39"></path><path d="M1305 557H1355C1383 557 1405 579 1405 607H1355C1327 607 1305 585 1305 557Z " transform="matrix(-0.15177864029704005,0.24289659883825468,-0.24289659883825468,-0.15177864029704005,1702.0258781263535,341.2102772270422)" filter="url(#llleaves-blur-3)" opacity="0.44"></path><path d="M1294 35H1344C1372 35 1394 57 1394 85H1344C1316 85 1294 63 1294 35Z " transform="matrix(-0.19712572309356508,0.2267672040974341,-0.2267672040974341,-0.19712572309356508,1622.5430040835975,-232.94757892133754)" filter="url(#llleaves-blur-2)" opacity="0.46"></path><path d="M462 398H512C540 398 562 420 562 448H512C484 448 462 426 462 398Z " transform="matrix(-0.08204436463935237,0.2525065903685384,-0.2525065903685384,-0.08204436463935237,660.8170024212402,328.4213919737544)" filter="url(#llleaves-blur-3)" opacity="0.41"></path><path d="M1307 283H1357C1385 283 1407 305 1407 333H1357C1329 333 1307 311 1307 283Z " transform="matrix(-0.15177864029704005,0.24289659883825468,-0.24289659883825468,-0.15177864029704005,1637.7757673252659,25.137136587976727)" filter="url(#llleaves-blur-3)" opacity="0.44"></path><path d="M245 363H295C323 363 345 385 345 413H295C267 413 245 391 245 363Z " transform="matrix(-0.28900610505506297,0.1601986999571313,-0.1601986999571313,-0.28900610505506297,442.4138965746105,452.8757522740108)" filter="url(#llleaves-blur-2)" opacity="0.51"></path><path d="M603 719H653C681 719 703 741 703 769H653C625 769 603 747 603 719Z " transform="matrix(-0.05317558221977428,0.25017144520019746,-0.25017144520019746,-0.05317558221977428,873.8512104184595,620.2006794557831)" filter="url(#llleaves-blur-3)" opacity="0.39"></path><path d="M462 40H512C540 40 562 62 562 90H512C484 90 462 68 462 40Z " transform="matrix(0.055506503287327966,0.2071530904187969,-0.2071530904187969,0.055506503287327966,497.04562119410986,-44.67030500810034)" filter="url(#llleaves-blur-3)" opacity="0.33"></path><path d="M222 32H272C300 32 322 54 322 82H272C244 82 222 60 222 32Z " transform="matrix(-0.025861950994656862,0.24606002726041,-0.24606002726041,-0.025861950994656862,293.05987222439006,-8.454196208136096)" filter="url(#llleaves-blur-3)" opacity="0.38"></path><path d="M2 336H52C80 336 102 358 102 386H52C24 386 2 364 2 336Z " transform="matrix(-0.2517671178519873,-0.38768736382085234,0.38768736382085234,-0.2517671178519873,-74.86324821102436,472.04767246325173)" opacity="0.71"></path><path d="M200 261H250C278 261 300 283 300 311H250C222 311 200 289 200 261Z " transform="matrix(-0.3234851782108691,0.1177389760950543,-0.1177389760950543,-0.3234851782108691,364.5446417159028,349.082016944545)" filter="url(#llleaves-blur-2)" opacity="0.53"></path><path d="M103 724H153C181 724 203 746 203 774H153C125 774 103 752 103 724Z " transform="matrix(-0.3844416420198532,-0.07472788522123114,0.07472788522123114,-0.3844416420198532,155.84838519833542,1048.3801563117183)" filter="url(#llleaves-blur-2)" opacity="0.60"></path><path d="M800 169H850C878 169 900 191 900 219H850C822 219 800 197 800 169Z " transform="matrix(-0.04398670896398011,0.24946102285223581,-0.24946102285223581,-0.04398670896398011,935.7841410527169,-9.508447885388279)" filter="url(#llleaves-blur-3)" opacity="0.39"></path><path d="M86 510H136C164 510 186 532 186 560H136C108 560 86 538 86 510Z " transform="matrix(-0.37910613760154865,-0.15316882196609732,0.15316882196609732,-0.37910613760154865,105.61311496194855,758.6527434042177)" opacity="0.63"></path><path d="M315 233H365C393 233 415 255 415 283H365C337 283 315 261 315 233Z " transform="matrix(-0.18666336277930795,0.23051005592543825,-0.23051005592543825,-0.18666336277930795,492.60372184321045,222.0229771842765)" filter="url(#llleaves-blur-3)" opacity="0.45"></path><path d="M96 266H146C174 266 196 288 196 316H146C118 316 96 294 96 266Z " transform="matrix(-0.37910613760154865,-0.15316882196609732,0.15316882196609732,-0.37910613760154865,156.7773688976918,423.68253404910087)" opacity="0.63"></path><path d="M1170 587H1220C1248 587 1270 609 1270 637H1220C1192 637 1170 615 1170 587Z " transform="matrix(-0.07221577600012513,0.25184634029601616,-0.25184634029601616,-0.07221577600012513,1462.2332069813149,348.94351975093684)" filter="url(#llleaves-blur-3)" opacity="0.40"></path><path d="M671 477H721C749 477 771 499 771 527H721C693 527 671 505 671 477Z " transform="matrix(-0.04858090192671657,0.24992707410654952,-0.24992707410654952,-0.04858090192671657,881.4902214906505,346.1901923363895)" filter="url(#llleaves-blur-3)" opacity="0.39"></path><path d="M1189 716H1239C1267 716 1289 738 1289 766H1239C1211 766 1189 744 1189 716Z " transform="matrix(-0.07221577600012513,0.25184634029601616,-0.25184634029601616,-0.07221577600012513,1515.0934846235032,482.4742743893287)" filter="url(#llleaves-blur-3)" opacity="0.40"></path><path d="M-4 713H46C74 713 96 735 96 763H46C18 763 -4 741 -4 713Z " transform="matrix(-0.2517671178519873,-0.38768736382085234,0.38768736382085234,-0.2517671178519873,-228.53198707859758,941.6377517105259)" opacity="0.71"></path><path d="M549 495H599C627 495 649 517 649 545H599C571 545 549 523 549 495Z " transform="matrix(-0.05804932393999761,0.2514392461646055,-0.2514392461646055,-0.05804932393999761,764.5199530456534,399.57353999620005)" filter="url(#llleaves-blur-3)" opacity="0.39"></path><path d="M367 321H417C445 321 467 343 467 371H417C389 371 367 349 367 321Z " transform="matrix(-0.1317717175463636,0.24782655657358782,-0.24782655657358782,-0.1317717175463636,557.696794791295,288.24934017985566)" filter="url(#llleaves-blur-3)" opacity="0.43"></path><path d="M266 631H316C344 631 366 653 366 681H316C288 681 266 659 266 631Z " transform="matrix(-0.25383946013142056,0.19128175325793864,-0.19128175325793864,-0.25383946013142056,521.6940995387366,762.0736518167032)" filter="url(#llleaves-blur-2)" opacity="0.49"></path><path d="M120 153H170C198 153 220 175 220 203H170C142 203 120 181 120 153Z " transform="matrix(-0.3844416420198532,-0.07472788522123114,0.07472788522123114,-0.3844416420198532,222.05351557399592,259.1343527671431)" filter="url(#llleaves-blur-2)" opacity="0.60"></path><path d="M1311 700H1361C1389 700 1411 722 1411 750H1361C1333 750 1311 728 1311 700Z " transform="matrix(-0.15177864029704005,0.24289659883825468,-0.24289659883825468,-0.15177864029704005,1743.6707636020062,504.4572431964894)" filter="url(#llleaves-blur-3)" opacity="0.44"></path><path d="M941 318H991C1019 318 1041 340 1041 368H991C963 368 941 346 941 318Z " transform="matrix(-0.03933619033352745,0.24835893129985445,-0.24835893129985445,-0.03933619033352745,1115.1692780563758,110.36861236624418)" filter="url(#llleaves-blur-3)" opacity="0.38"></path><path d="M432 499H482C510 499 532 521 532 549H482C454 549 432 527 432 499Z " transform="matrix(-0.09659393947180414,0.25163581543369196,-0.25163581543369196,-0.09659393947180414,660.4154461126641,453.32676124418583)" filter="url(#llleaves-blur-3)" opacity="0.41"></path></g></svg>