<svg xmlns="http://www.w3.org/2000/svg" version="1.1" xmlns:xlink="http://www.w3.org/1999/xlink" xmlns:svgjs="http://svgjs.dev/svgjs" viewBox="0 0 2400 800"><defs><linearGradient x1="50%" y1="0%" x2="50%" y2="100%" id="sssurf-grad"><stop stop-color="hsl(96 34% 53%)" stop-opacity="1" offset="0%"></stop><stop stop-color="hsla(208, 74%, 93%, 0.36)" stop-opacity="1" offset="100%"></stop></linearGradient></defs><g fill="url(#sssurf-grad)" transform="matrix(1,0,0,1,9.4296875,222.35150814056396)"><path d="M-10,10C33.75,13.125,114.58333333333334,31.25,200,25C285.41666666666663,18.75,316.66666666666663,-20.833333333333332,400,-20C483.33333333333337,-19.166666666666668,516.6666666666666,29.416666666666668,600,29C683.3333333333334,28.583333333333332,716.6666666666666,-23.458333333333332,800,-22C883.3333333333334,-20.541666666666668,916.6666666666666,33.916666666666664,1000,36C1083.3333333333333,38.083333333333336,1116.6666666666667,-10.541666666666666,1200,-12C1283.3333333333333,-13.458333333333334,1316.6666666666667,29.416666666666668,1400,29C1483.3333333333333,28.583333333333332,1516.6666666666667,-15.875,1600,-14C1683.3333333333333,-12.125,1716.6666666666667,35.708333333333336,1800,38C1883.3333333333333,40.291666666666664,1916.6666666666667,-1.75,2000,-3C2083.3333333333335,-4.25,2116.6666666666665,30.75,2200,32C2283.3333333333335,33.25,2306.25,-73.66666666666667,2400,3C2493.75,79.66666666666667,3254.1666666666665,213.125,2650,400C2045.8333333333335,586.875,156.25,795.8333333333334,-500,900" transform="matrix(1,0,0,1,0,35)" opacity="0.05"></path><path d="M-10,10C33.75,13.125,114.58333333333334,31.25,200,25C285.41666666666663,18.75,316.66666666666663,-20.833333333333332,400,-20C483.33333333333337,-19.166666666666668,516.6666666666666,29.416666666666668,600,29C683.3333333333334,28.583333333333332,716.6666666666666,-23.458333333333332,800,-22C883.3333333333334,-20.541666666666668,916.6666666666666,33.916666666666664,1000,36C1083.3333333333333,38.083333333333336,1116.6666666666667,-10.541666666666666,1200,-12C1283.3333333333333,-13.458333333333334,1316.6666666666667,29.416666666666668,1400,29C1483.3333333333333,28.583333333333332,1516.6666666666667,-15.875,1600,-14C1683.3333333333333,-12.125,1716.6666666666667,35.708333333333336,1800,38C1883.3333333333333,40.291666666666664,1916.6666666666667,-1.75,2000,-3C2083.3333333333335,-4.25,2116.6666666666665,30.75,2200,32C2283.3333333333335,33.25,2306.25,-73.66666666666667,2400,3C2493.75,79.66666666666667,3254.1666666666665,213.125,2650,400C2045.8333333333335,586.875,156.25,795.8333333333334,-500,900" transform="matrix(1,0,0,1,0,70)" opacity="0.21"></path><path d="M-10,10C33.75,13.125,114.58333333333334,31.25,200,25C285.41666666666663,18.75,316.66666666666663,-20.833333333333332,400,-20C483.33333333333337,-19.166666666666668,516.6666666666666,29.416666666666668,600,29C683.3333333333334,28.583333333333332,716.6666666666666,-23.458333333333332,800,-22C883.3333333333334,-20.541666666666668,916.6666666666666,33.916666666666664,1000,36C1083.3333333333333,38.083333333333336,1116.6666666666667,-10.541666666666666,1200,-12C1283.3333333333333,-13.458333333333334,1316.6666666666667,29.416666666666668,1400,29C1483.3333333333333,28.583333333333332,1516.6666666666667,-15.875,1600,-14C1683.3333333333333,-12.125,1716.6666666666667,35.708333333333336,1800,38C1883.3333333333333,40.291666666666664,1916.6666666666667,-1.75,2000,-3C2083.3333333333335,-4.25,2116.6666666666665,30.75,2200,32C2283.3333333333335,33.25,2306.25,-73.66666666666667,2400,3C2493.75,79.66666666666667,3254.1666666666665,213.125,2650,400C2045.8333333333335,586.875,156.25,795.8333333333334,-500,900" transform="matrix(1,0,0,1,0,105)" opacity="0.37"></path><path d="M-10,10C33.75,13.125,114.58333333333334,31.25,200,25C285.41666666666663,18.75,316.66666666666663,-20.833333333333332,400,-20C483.33333333333337,-19.166666666666668,516.6666666666666,29.416666666666668,600,29C683.3333333333334,28.583333333333332,716.6666666666666,-23.458333333333332,800,-22C883.3333333333334,-20.541666666666668,916.6666666666666,33.916666666666664,1000,36C1083.3333333333333,38.083333333333336,1116.6666666666667,-10.541666666666666,1200,-12C1283.3333333333333,-13.458333333333334,1316.6666666666667,29.416666666666668,1400,29C1483.3333333333333,28.583333333333332,1516.6666666666667,-15.875,1600,-14C1683.3333333333333,-12.125,1716.6666666666667,35.708333333333336,1800,38C1883.3333333333333,40.291666666666664,1916.6666666666667,-1.75,2000,-3C2083.3333333333335,-4.25,2116.6666666666665,30.75,2200,32C2283.3333333333335,33.25,2306.25,-73.66666666666667,2400,3C2493.75,79.66666666666667,3254.1666666666665,213.125,2650,400C2045.8333333333335,586.875,156.25,795.8333333333334,-500,900" transform="matrix(1,0,0,1,0,140)" opacity="0.53"></path><path d="M-10,10C33.75,13.125,114.58333333333334,31.25,200,25C285.41666666666663,18.75,316.66666666666663,-20.833333333333332,400,-20C483.33333333333337,-19.166666666666668,516.6666666666666,29.416666666666668,600,29C683.3333333333334,28.583333333333332,716.6666666666666,-23.458333333333332,800,-22C883.3333333333334,-20.541666666666668,916.6666666666666,33.916666666666664,1000,36C1083.3333333333333,38.083333333333336,1116.6666666666667,-10.541666666666666,1200,-12C1283.3333333333333,-13.458333333333334,1316.6666666666667,29.416666666666668,1400,29C1483.3333333333333,28.583333333333332,1516.6666666666667,-15.875,1600,-14C1683.3333333333333,-12.125,1716.6666666666667,35.708333333333336,1800,38C1883.3333333333333,40.291666666666664,1916.6666666666667,-1.75,2000,-3C2083.3333333333335,-4.25,2116.6666666666665,30.75,2200,32C2283.3333333333335,33.25,2306.25,-73.66666666666667,2400,3C2493.75,79.66666666666667,3254.1666666666665,213.125,2650,400C2045.8333333333335,586.875,156.25,795.8333333333334,-500,900" transform="matrix(1,0,0,1,0,175)" opacity="0.68"></path><path d="M-10,10C33.75,13.125,114.58333333333334,31.25,200,25C285.41666666666663,18.75,316.66666666666663,-20.833333333333332,400,-20C483.33333333333337,-19.166666666666668,516.6666666666666,29.416666666666668,600,29C683.3333333333334,28.583333333333332,716.6666666666666,-23.458333333333332,800,-22C883.3333333333334,-20.541666666666668,916.6666666666666,33.916666666666664,1000,36C1083.3333333333333,38.083333333333336,1116.6666666666667,-10.541666666666666,1200,-12C1283.3333333333333,-13.458333333333334,1316.6666666666667,29.416666666666668,1400,29C1483.3333333333333,28.583333333333332,1516.6666666666667,-15.875,1600,-14C1683.3333333333333,-12.125,1716.6666666666667,35.708333333333336,1800,38C1883.3333333333333,40.291666666666664,1916.6666666666667,-1.75,2000,-3C2083.3333333333335,-4.25,2116.6666666666665,30.75,2200,32C2283.3333333333335,33.25,2306.25,-73.66666666666667,2400,3C2493.75,79.66666666666667,3254.1666666666665,213.125,2650,400C2045.8333333333335,586.875,156.25,795.8333333333334,-500,900" transform="matrix(1,0,0,1,0,210)" opacity="0.84"></path><path d="M-10,10C33.75,13.125,114.58333333333334,31.25,200,25C285.41666666666663,18.75,316.66666666666663,-20.833333333333332,400,-20C483.33333333333337,-19.166666666666668,516.6666666666666,29.416666666666668,600,29C683.3333333333334,28.583333333333332,716.6666666666666,-23.458333333333332,800,-22C883.3333333333334,-20.541666666666668,916.6666666666666,33.916666666666664,1000,36C1083.3333333333333,38.083333333333336,1116.6666666666667,-10.541666666666666,1200,-12C1283.3333333333333,-13.458333333333334,1316.6666666666667,29.416666666666668,1400,29C1483.3333333333333,28.583333333333332,1516.6666666666667,-15.875,1600,-14C1683.3333333333333,-12.125,1716.6666666666667,35.708333333333336,1800,38C1883.3333333333333,40.291666666666664,1916.6666666666667,-1.75,2000,-3C2083.3333333333335,-4.25,2116.6666666666665,30.75,2200,32C2283.3333333333335,33.25,2306.25,-73.66666666666667,2400,3C2493.75,79.66666666666667,3254.1666666666665,213.125,2650,400C2045.8333333333335,586.875,156.25,795.8333333333334,-500,900" transform="matrix(1,0,0,1,0,245)" opacity="1"></path></g></svg>