<svg xmlns="http://www.w3.org/2000/svg" version="1.1" xmlns:xlink="http://www.w3.org/1999/xlink" xmlns:svgjs="http://svgjs.dev/svgjs" viewBox="0 0 2400 800" opacity="1"><g fill="hsl(197, 68%, 43%)" transform="matrix(1,0,0,1,0,-167.12594604492188)"><path d="M 0 333.97686313489464 Q 450 644.9614793909116 600 349.6169982815286 Q 1050 628.2698151939642 1200 336.45857761845144 Q 1650 473.99573242197897 1800 353.95143639390096 Q 2250 646.8596743490923 2400 332.25185463477106 L 2400 800 L 0 800 L 0 353.0745132287305 Z" transform="matrix(1,0,0,1,0,67)" opacity="0.05"></path><path d="M 0 333.97686313489464 Q 450 644.9614793909116 600 349.6169982815286 Q 1050 628.2698151939642 1200 336.45857761845144 Q 1650 473.99573242197897 1800 353.95143639390096 Q 2250 646.8596743490923 2400 332.25185463477106 L 2400 800 L 0 800 L 0 353.0745132287305 Z" transform="matrix(1,0,0,1,0,134)" opacity="0.29"></path><path d="M 0 333.97686313489464 Q 450 644.9614793909116 600 349.6169982815286 Q 1050 628.2698151939642 1200 336.45857761845144 Q 1650 473.99573242197897 1800 353.95143639390096 Q 2250 646.8596743490923 2400 332.25185463477106 L 2400 800 L 0 800 L 0 353.0745132287305 Z" transform="matrix(1,0,0,1,0,201)" opacity="0.53"></path><path d="M 0 333.97686313489464 Q 450 644.9614793909116 600 349.6169982815286 Q 1050 628.2698151939642 1200 336.45857761845144 Q 1650 473.99573242197897 1800 353.95143639390096 Q 2250 646.8596743490923 2400 332.25185463477106 L 2400 800 L 0 800 L 0 353.0745132287305 Z" transform="matrix(1,0,0,1,0,268)" opacity="0.76"></path><path d="M 0 333.97686313489464 Q 450 644.9614793909116 600 349.6169982815286 Q 1050 628.2698151939642 1200 336.45857761845144 Q 1650 473.99573242197897 1800 353.95143639390096 Q 2250 646.8596743490923 2400 332.25185463477106 L 2400 800 L 0 800 L 0 353.0745132287305 Z" transform="matrix(1,0,0,1,0,335)" opacity="1.00"></path></g></svg>