<svg xmlns="http://www.w3.org/2000/svg" version="1.1" xmlns:xlink="http://www.w3.org/1999/xlink" xmlns:svgjs="http://svgjs.dev/svgjs" viewBox="0 0 2400 800" opacity="1"><defs><linearGradient x1="50%" y1="0%" x2="50%" y2="100%" id="sssurf-grad"><stop stop-color="hsl(208, 77%, 50%)" stop-opacity="1" offset="0%"></stop><stop stop-color="hsla(0, 0%, 100%, 1.00)" stop-opacity="1" offset="100%"></stop></linearGradient></defs><g fill="url(#sssurf-grad)" transform="matrix(1,0,0,1,5.82373046875,165.53654098510742)"><path d="M-10,10C75.41666666666666,33.333333333333336,231.25,134.70833333333334,400,122C568.75,109.29166666666667,633.3333333333333,-44.958333333333336,800,-51C966.6666666666667,-57.041666666666664,1033.3333333333333,101.33333333333333,1200,93C1366.6666666666667,84.66666666666667,1433.3333333333333,-79.95833333333333,1600,-91C1766.6666666666667,-102.04166666666667,1833.3333333333333,46.041666666666664,2000,40C2166.6666666666665,33.958333333333336,2264.5833333333335,-195,2400,-120C2535.4166666666665,-45,3254.1666666666665,187.5,2650,400C2045.8333333333335,612.5,156.25,795.8333333333334,-500,900" transform="matrix(1,0,0,1,0,84)" opacity="0.05"></path><path d="M-10,10C75.41666666666666,33.333333333333336,231.25,134.70833333333334,400,122C568.75,109.29166666666667,633.3333333333333,-44.958333333333336,800,-51C966.6666666666667,-57.041666666666664,1033.3333333333333,101.33333333333333,1200,93C1366.6666666666667,84.66666666666667,1433.3333333333333,-79.95833333333333,1600,-91C1766.6666666666667,-102.04166666666667,1833.3333333333333,46.041666666666664,2000,40C2166.6666666666665,33.958333333333336,2264.5833333333335,-195,2400,-120C2535.4166666666665,-45,3254.1666666666665,187.5,2650,400C2045.8333333333335,612.5,156.25,795.8333333333334,-500,900" transform="matrix(1,0,0,1,0,168)" opacity="0.29"></path><path d="M-10,10C75.41666666666666,33.333333333333336,231.25,134.70833333333334,400,122C568.75,109.29166666666667,633.3333333333333,-44.958333333333336,800,-51C966.6666666666667,-57.041666666666664,1033.3333333333333,101.33333333333333,1200,93C1366.6666666666667,84.66666666666667,1433.3333333333333,-79.95833333333333,1600,-91C1766.6666666666667,-102.04166666666667,1833.3333333333333,46.041666666666664,2000,40C2166.6666666666665,33.958333333333336,2264.5833333333335,-195,2400,-120C2535.4166666666665,-45,3254.1666666666665,187.5,2650,400C2045.8333333333335,612.5,156.25,795.8333333333334,-500,900" transform="matrix(1,0,0,1,0,252)" opacity="0.53"></path><path d="M-10,10C75.41666666666666,33.333333333333336,231.25,134.70833333333334,400,122C568.75,109.29166666666667,633.3333333333333,-44.958333333333336,800,-51C966.6666666666667,-57.041666666666664,1033.3333333333333,101.33333333333333,1200,93C1366.6666666666667,84.66666666666667,1433.3333333333333,-79.95833333333333,1600,-91C1766.6666666666667,-102.04166666666667,1833.3333333333333,46.041666666666664,2000,40C2166.6666666666665,33.958333333333336,2264.5833333333335,-195,2400,-120C2535.4166666666665,-45,3254.1666666666665,187.5,2650,400C2045.8333333333335,612.5,156.25,795.8333333333334,-500,900" transform="matrix(1,0,0,1,0,336)" opacity="0.76"></path><path d="M-10,10C75.41666666666666,33.333333333333336,231.25,134.70833333333334,400,122C568.75,109.29166666666667,633.3333333333333,-44.958333333333336,800,-51C966.6666666666667,-57.041666666666664,1033.3333333333333,101.33333333333333,1200,93C1366.6666666666667,84.66666666666667,1433.3333333333333,-79.95833333333333,1600,-91C1766.6666666666667,-102.04166666666667,1833.3333333333333,46.041666666666664,2000,40C2166.6666666666665,33.958333333333336,2264.5833333333335,-195,2400,-120C2535.4166666666665,-45,3254.1666666666665,187.5,2650,400C2045.8333333333335,612.5,156.25,795.8333333333334,-500,900" transform="matrix(1,0,0,1,0,420)" opacity="1.00"></path></g></svg>